<svg width="830" height="588" viewBox="0 0 830 588" fill="none" xmlns="http://www.w3.org/2000/svg">
<g clip-path="url(#clip0_2_66)">
<path d="M85.757 572.858L99.518 572.857L106.065 519.775L85.754 519.776L85.757 572.858Z" fill="#FFB6B6"/>
<path d="M85.2721 587.214L127.591 587.212V586.677C127.591 582.309 125.856 578.119 122.767 575.03C119.678 571.941 115.488 570.206 111.12 570.206H111.119L103.388 564.341L88.9656 570.206L85.2714 570.207L85.2721 587.214Z" fill="#2F2E41"/>
<path d="M107.98 508.635L118.814 517.121L156.702 479.371L140.712 466.846L107.98 508.635Z" fill="#FFB6B6"/>
<path d="M98.7451 519.638L132.061 545.734L132.391 545.312C135.084 541.873 136.302 537.505 135.775 533.168C135.248 528.832 133.02 524.882 129.581 522.188L129.581 522.187L127.112 512.804L112.141 508.527L109.232 506.249L98.7451 519.638Z" fill="#2F2E41"/>
<path d="M172.771 266.775C172.771 266.775 191.035 285.716 182.918 329.686L189.733 404.974L191.492 408.46C192.54 410.536 192.906 412.891 192.537 415.188C192.169 417.485 191.085 419.607 189.44 421.252V421.252L187.991 425.745L186.638 434.539L136.241 510.304L116.962 490.01L148.079 418.981L139.624 400.716L120.006 337.128L106.477 453.481L109.182 553.598H83.2874L67.2412 441.981L50.3295 285.039L59.1263 266.775H172.771Z" fill="#2F2E41"/>
<path d="M54.547 299.321L54.3624 299.062C44.506 285.262 59.3301 252.103 61.5659 247.296C58.9109 246.435 56.6367 244.679 55.1305 242.329C53.6244 239.979 52.9795 237.18 53.3056 234.408L54.2694 226.215L55.274 218.178L48.0766 210.981L48.0564 210.802L43.9144 174.559L37.8921 150.487C35.6229 141.387 35.8163 131.847 38.4524 122.847C41.0884 113.846 46.0722 105.709 52.8921 99.271L66.8127 97.0605L83.7306 80.7599H111.013L120.367 89.6973C137.829 92.76 140.829 91.7599 155.829 109.76L149.014 165.722L147.313 173.421L147.318 183.863L151.641 188.667C153.198 190.398 154.33 192.468 154.945 194.713C155.561 196.958 155.644 199.316 155.187 201.599L154.619 204.441C159.077 206.352 163.331 240.307 164.348 245.049L165.866 252.134C167.165 253.848 175.739 265.28 175.739 268.405C175.739 268.875 175.392 269.328 174.649 269.831C168.806 273.788 145.512 301.854 131.218 296.134C115.993 290.047 55.4713 299.179 54.8615 299.272L54.547 299.321Z" fill="#3F3D56"/>
<path d="M50.8816 234.245C50.8816 234.245 57.8876 194.651 50.8295 179.76L22.8295 181.76L27.0907 238.247L51.5679 300.964C51.1943 302.896 51.3386 304.893 51.9862 306.752C52.6338 308.61 53.7616 310.264 55.2551 311.546C56.7486 312.828 58.5547 313.691 60.49 314.049C62.4252 314.407 64.4208 314.247 66.274 313.585C68.1272 312.922 69.7721 311.781 71.0418 310.277C72.3114 308.773 73.1606 306.96 73.5031 305.022C73.8455 303.084 73.6691 301.09 72.9917 299.242C72.3142 297.394 71.16 295.759 69.646 294.501L50.8816 234.245Z" fill="#FFB6B6"/>
<path d="M22.8294 158.76L24.5623 139.889C25.2145 132.786 27.2645 125.883 30.5944 119.576C33.9243 113.268 38.4683 107.682 43.9651 103.137V103.137C47.3805 100.334 51.5117 98.5422 55.8919 97.964C60.2722 97.3858 64.7269 98.0442 68.7526 99.8649V99.8649C74.193 102.37 78.4794 106.847 80.7451 112.391C83.0107 117.935 83.0866 124.133 80.9573 129.731C74.4858 146.704 76.8226 164.652 64.2038 166.841L65.5747 173.363L53.1674 213.854L17.8293 209.76L22.8294 158.76Z" fill="#3F3D56"/>
<path d="M209.206 215.479C209.206 215.479 188.697 180.893 173.635 174.207L153.713 193.983L193.78 234.027L253.236 265.611C254.213 267.32 255.624 268.74 257.327 269.726C259.03 270.713 260.964 271.231 262.932 271.229C264.9 271.227 266.832 270.704 268.533 269.713C270.234 268.722 271.642 267.3 272.615 265.589C273.588 263.878 274.091 261.94 274.072 259.972C274.054 258.004 273.516 256.076 272.512 254.383C271.507 252.691 270.073 251.294 268.354 250.335C266.636 249.376 264.694 248.888 262.726 248.922L209.206 215.479Z" fill="#FFB6B6"/>
<path d="M138.714 176.546L127.721 161.11C123.584 155.3 120.636 148.73 119.047 141.777C117.458 134.824 117.26 127.625 118.463 120.595V120.595C119.225 116.243 121.188 112.19 124.132 108.895C127.076 105.601 130.882 103.195 135.121 101.95V101.95C140.879 100.301 147.048 100.9 152.382 103.625C157.715 106.351 161.814 111 163.85 116.633C170.013 133.72 192.489 161.803 184.35 171.691L189.642 175.742L197.641 198.529L168.182 218.471L138.714 176.546Z" fill="#3F3D56"/>
<path d="M95.5308 72.8854C112.264 72.8854 125.829 59.3202 125.829 42.5867C125.829 25.8533 112.264 12.2881 95.5308 12.2881C78.7973 12.2881 65.2322 25.8533 65.2322 42.5867C65.2322 59.3202 78.7973 72.8854 95.5308 72.8854Z" fill="#FFB6B6"/>
<path d="M73.5423 63.9427C73.2778 63.7108 73.0282 63.4631 72.7697 63.2247C72.7604 63.2492 72.759 63.2742 72.7491 63.2986L73.5423 63.9427Z" fill="#2F2E41"/>
<path d="M120.36 10.5913C118.855 8.1679 116.77 6.15751 114.293 4.74155C112.6 3.9205 110.821 3.29023 108.989 2.86235L104.194 1.55408C101.738 0.79385 99.2099 0.284897 96.6503 0.035064C93.096 -0.140278 89.5617 0.66451 86.4337 2.36151C83.3057 4.05851 80.7041 6.58246 78.9132 9.6577C77.4645 12.2272 76.3025 15.4292 73.5065 16.3693C71.252 17.1274 68.7922 16.0581 66.4228 16.2656C65.0343 16.4668 63.717 17.0073 62.5874 17.8394C61.4578 18.6714 60.5509 19.7692 59.947 21.0356C58.7662 23.5839 58.185 26.3689 58.2482 29.1768C58.155 35.5517 59.3992 41.8753 61.9004 47.7398C64.4017 53.6043 68.1044 58.8794 72.7697 63.2248C73.5517 61.1635 72.2637 58.938 71.2455 56.9662C70.2153 54.971 69.5786 52.1894 71.3041 50.7524C73.2241 49.1534 76.3002 50.7039 78.5709 49.6612C79.2974 49.2439 79.9092 48.6532 80.3518 47.9419C80.7943 47.2305 81.0538 46.4207 81.107 45.5846C81.3268 43.9279 81.0974 42.2438 81.2014 40.5758C81.3044 38.9224 81.734 37.3058 82.4653 35.8193C83.1967 34.3328 84.2152 33.0059 85.4622 31.9153C86.7092 30.8247 88.1599 29.9919 89.7305 29.465C91.3011 28.9382 92.9606 28.7277 94.613 28.8457C99.7815 29.2149 104.797 32.7467 109.771 31.2937C112.106 30.6117 114.097 28.8753 116.512 28.5832C119.186 28.2597 121.702 29.7689 123.972 31.218C124.797 27.7144 124.903 24.0797 124.282 20.5342C123.661 16.9887 122.327 13.6061 120.36 10.5913Z" fill="#2F2E41"/>
<path d="M225.399 570.191L217.689 557.801L216.149 564.881C215.879 566.121 215.609 567.381 215.359 568.631C213.169 566.761 210.839 565.031 208.56 563.371C201.56 558.291 194.563 553.205 187.569 548.111L189.759 560.811C191.109 568.631 192.52 576.611 195.859 583.761C196.229 584.571 196.629 585.371 197.06 586.151H229.6C229.861 585.427 230.042 584.676 230.14 583.911C230.148 583.862 230.151 583.812 230.149 583.761C230.66 578.911 227.979 574.341 225.399 570.191Z" fill="#F0F0F0"/>
<path d="M789.482 556.81L775.497 534.336L772.704 547.179C772.214 549.428 771.724 551.713 771.271 553.981C767.299 550.589 763.072 547.451 758.937 544.44C746.24 535.225 733.548 525.998 720.863 516.76L724.835 539.796C727.284 553.981 729.842 568.456 735.9 581.425C736.571 582.894 737.297 584.345 738.077 585.76H797.101C797.576 584.446 797.904 583.083 798.08 581.697C798.095 581.607 798.101 581.516 798.098 581.425C799.024 572.627 794.162 564.338 789.482 556.81Z" fill="#F0F0F0"/>
<path d="M827.941 587.369L1.19066 587.676C0.875467 587.675 0.573504 587.55 0.350952 587.326C0.1284 587.103 0.00341797 586.801 0.00341797 586.486C0.00341797 586.17 0.1284 585.868 0.350952 585.645C0.573504 585.422 0.875467 585.296 1.19066 585.295L827.941 584.988C828.256 584.989 828.558 585.114 828.78 585.338C829.003 585.561 829.128 585.863 829.128 586.178C829.128 586.494 829.003 586.796 828.78 587.019C828.558 587.242 828.256 587.368 827.941 587.369V587.369Z" fill="#CACACA"/>
<path d="M259.398 238.297V525.321C259.401 528.979 260.855 532.486 263.442 535.073C266.028 537.659 269.535 539.113 273.193 539.116H698.533C702.19 539.113 705.697 537.659 708.284 535.073C710.87 532.486 712.325 528.979 712.327 525.321V238.297C712.319 234.643 710.862 231.141 708.277 228.558C705.691 225.975 702.187 224.522 698.533 224.518H273.193C269.538 224.522 266.034 225.975 263.449 228.558C260.863 231.141 259.407 234.643 259.398 238.297V238.297Z" fill="#3F3D56"/>
<path d="M269.376 241.869V521.781C269.38 523.735 270.157 525.608 271.539 526.99C272.921 528.372 274.794 529.15 276.749 529.153H694.992C696.946 529.15 698.82 528.372 700.201 526.99C701.583 525.608 702.361 523.735 702.365 521.781V241.869C702.364 239.912 701.588 238.035 700.206 236.65C698.824 235.265 696.949 234.485 694.992 234.481H276.749C274.792 234.485 272.917 235.265 271.535 236.65C270.153 238.035 269.376 239.912 269.376 241.869V241.869Z" fill="white"/>
<path d="M250.502 581.299C251.282 582.276 252.272 583.063 253.399 583.603C254.527 584.142 255.761 584.419 257.011 584.413H712.45C713.696 584.411 714.925 584.132 716.049 583.596C717.173 583.059 718.164 582.279 718.948 581.311C719.733 580.344 720.292 579.214 720.585 578.003C720.878 576.793 720.897 575.532 720.642 574.313L713.572 540.732C713.279 539.362 712.648 538.088 711.737 537.025C710.825 535.961 709.663 535.143 708.354 534.644C707.407 534.272 706.398 534.082 705.38 534.083H264.053C263.035 534.082 262.026 534.272 261.079 534.644C259.77 535.143 258.608 535.961 257.696 537.025C256.785 538.088 256.154 539.362 255.861 540.732L248.791 574.313C248.539 575.531 248.563 576.791 248.859 577.999C249.155 579.207 249.716 580.335 250.502 581.299V581.299Z" fill="#2F2E41"/>
<path d="M688.606 548.547H701.657C701.927 548.547 702.146 548.329 702.146 548.059V540.619C702.146 540.349 701.927 540.131 701.657 540.131H688.606C688.337 540.131 688.118 540.349 688.118 540.619V548.059C688.118 548.329 688.337 548.547 688.606 548.547Z" fill="#3F3D56"/>
<path d="M660.552 548.547H673.603C673.872 548.547 674.091 548.329 674.091 548.059V540.619C674.091 540.349 673.872 540.131 673.603 540.131H660.552C660.282 540.131 660.064 540.349 660.064 540.619V548.059C660.064 548.329 660.282 548.547 660.552 548.547Z" fill="#3F3D56"/>
<path d="M632.497 548.547H645.548C645.818 548.547 646.036 548.329 646.036 548.059V540.619C646.036 540.349 645.818 540.131 645.548 540.131H632.497C632.228 540.131 632.009 540.349 632.009 540.619V548.059C632.009 548.329 632.228 548.547 632.497 548.547Z" fill="#3F3D56"/>
<path d="M604.443 548.547H617.494C617.763 548.547 617.982 548.329 617.982 548.059V540.619C617.982 540.349 617.763 540.131 617.494 540.131H604.443C604.173 540.131 603.954 540.349 603.954 540.619V548.059C603.954 548.329 604.173 548.547 604.443 548.547Z" fill="#3F3D56"/>
<path d="M576.388 548.547H589.439C589.708 548.547 589.927 548.329 589.927 548.059V540.619C589.927 540.349 589.708 540.131 589.439 540.131H576.388C576.118 540.131 575.9 540.349 575.9 540.619V548.059C575.9 548.329 576.118 548.547 576.388 548.547Z" fill="#3F3D56"/>
<path d="M548.333 548.547H561.384C561.654 548.547 561.872 548.329 561.872 548.059V540.619C561.872 540.349 561.654 540.131 561.384 540.131H548.333C548.064 540.131 547.845 540.349 547.845 540.619V548.059C547.845 548.329 548.064 548.547 548.333 548.547Z" fill="#3F3D56"/>
<path d="M520.279 548.547H533.33C533.599 548.547 533.818 548.329 533.818 548.059V540.619C533.818 540.349 533.599 540.131 533.33 540.131H520.279C520.009 540.131 519.79 540.349 519.79 540.619V548.059C519.79 548.329 520.009 548.547 520.279 548.547Z" fill="#3F3D56"/>
<path d="M492.224 548.547H505.275C505.545 548.547 505.763 548.329 505.763 548.059V540.619C505.763 540.349 505.545 540.131 505.275 540.131H492.224C491.954 540.131 491.736 540.349 491.736 540.619V548.059C491.736 548.329 491.954 548.547 492.224 548.547Z" fill="#3F3D56"/>
<path d="M464.169 548.547H477.22C477.49 548.547 477.708 548.329 477.708 548.059V540.619C477.708 540.349 477.49 540.131 477.22 540.131H464.169C463.9 540.131 463.681 540.349 463.681 540.619V548.059C463.681 548.329 463.9 548.547 464.169 548.547Z" fill="#3F3D56"/>
<path d="M436.115 548.547H449.166C449.435 548.547 449.654 548.329 449.654 548.059V540.619C449.654 540.349 449.435 540.131 449.166 540.131H436.115C435.845 540.131 435.627 540.349 435.627 540.619V548.059C435.627 548.329 435.845 548.547 436.115 548.547Z" fill="#3F3D56"/>
<path d="M408.06 548.547H421.111C421.381 548.547 421.599 548.329 421.599 548.059V540.619C421.599 540.349 421.381 540.131 421.111 540.131H408.06C407.79 540.131 407.572 540.349 407.572 540.619V548.059C407.572 548.329 407.79 548.547 408.06 548.547Z" fill="#3F3D56"/>
<path d="M380.005 548.547H393.056C393.326 548.547 393.545 548.329 393.545 548.059V540.619C393.545 540.349 393.326 540.131 393.056 540.131H380.005C379.736 540.131 379.517 540.349 379.517 540.619V548.059C379.517 548.329 379.736 548.547 380.005 548.547Z" fill="#3F3D56"/>
<path d="M351.951 548.547H365.002C365.271 548.547 365.49 548.329 365.49 548.059V540.619C365.49 540.349 365.271 540.131 365.002 540.131H351.951C351.681 540.131 351.463 540.349 351.463 540.619V548.059C351.463 548.329 351.681 548.547 351.951 548.547Z" fill="#3F3D56"/>
<path d="M323.896 548.547H336.947C337.217 548.547 337.435 548.329 337.435 548.059V540.619C337.435 540.349 337.217 540.131 336.947 540.131H323.896C323.627 540.131 323.408 540.349 323.408 540.619V548.059C323.408 548.329 323.627 548.547 323.896 548.547Z" fill="#3F3D56"/>
<path d="M295.841 548.547H308.892C309.162 548.547 309.381 548.329 309.381 548.059V540.619C309.381 540.349 309.162 540.131 308.892 540.131H295.841C295.572 540.131 295.353 540.349 295.353 540.619V548.059C295.353 548.329 295.572 548.547 295.841 548.547Z" fill="#3F3D56"/>
<path d="M267.787 548.547H280.838C281.107 548.547 281.326 548.329 281.326 548.059V540.619C281.326 540.349 281.107 540.131 280.838 540.131H267.787C267.517 540.131 267.299 540.349 267.299 540.619V548.059C267.299 548.329 267.517 548.547 267.787 548.547Z" fill="#3F3D56"/>
<path d="M688.938 562.574H701.989C702.259 562.574 702.477 562.356 702.477 562.086V554.646C702.477 554.377 702.259 554.158 701.989 554.158H688.938C688.668 554.158 688.45 554.377 688.45 554.646V562.086C688.45 562.356 688.668 562.574 688.938 562.574Z" fill="#3F3D56"/>
<path d="M660.883 562.574H673.934C674.204 562.574 674.422 562.356 674.422 562.086V554.646C674.422 554.377 674.204 554.158 673.934 554.158H660.883C660.614 554.158 660.395 554.377 660.395 554.646V562.086C660.395 562.356 660.614 562.574 660.883 562.574Z" fill="#3F3D56"/>
<path d="M632.829 562.574H645.88C646.149 562.574 646.368 562.356 646.368 562.086V554.646C646.368 554.377 646.149 554.158 645.88 554.158H632.829C632.559 554.158 632.341 554.377 632.341 554.646V562.086C632.341 562.356 632.559 562.574 632.829 562.574Z" fill="#3F3D56"/>
<path d="M604.774 562.574H617.825C618.095 562.574 618.313 562.356 618.313 562.086V554.646C618.313 554.377 618.095 554.158 617.825 554.158H604.774C604.504 554.158 604.286 554.377 604.286 554.646V562.086C604.286 562.356 604.504 562.574 604.774 562.574Z" fill="#3F3D56"/>
<path d="M576.719 562.574H589.77C590.04 562.574 590.259 562.356 590.259 562.086V554.646C590.259 554.377 590.04 554.158 589.77 554.158H576.719C576.45 554.158 576.231 554.377 576.231 554.646V562.086C576.231 562.356 576.45 562.574 576.719 562.574Z" fill="#3F3D56"/>
<path d="M548.665 562.574H561.716C561.985 562.574 562.204 562.356 562.204 562.086V554.646C562.204 554.377 561.985 554.158 561.716 554.158H548.665C548.395 554.158 548.177 554.377 548.177 554.646V562.086C548.177 562.356 548.395 562.574 548.665 562.574Z" fill="#3F3D56"/>
<path d="M520.61 562.574H533.661C533.931 562.574 534.149 562.356 534.149 562.086V554.646C534.149 554.377 533.931 554.158 533.661 554.158H520.61C520.34 554.158 520.122 554.377 520.122 554.646V562.086C520.122 562.356 520.34 562.574 520.61 562.574Z" fill="#3F3D56"/>
<path d="M492.555 562.574H505.606C505.876 562.574 506.095 562.356 506.095 562.086V554.646C506.095 554.377 505.876 554.158 505.606 554.158H492.555C492.286 554.158 492.067 554.377 492.067 554.646V562.086C492.067 562.356 492.286 562.574 492.555 562.574Z" fill="#3F3D56"/>
<path d="M464.501 562.574H477.552C477.821 562.574 478.04 562.356 478.04 562.086V554.646C478.04 554.377 477.821 554.158 477.552 554.158H464.501C464.231 554.158 464.013 554.377 464.013 554.646V562.086C464.013 562.356 464.231 562.574 464.501 562.574Z" fill="#3F3D56"/>
<path d="M436.446 562.574H449.497C449.767 562.574 449.985 562.356 449.985 562.086V554.646C449.985 554.377 449.767 554.158 449.497 554.158H436.446C436.177 554.158 435.958 554.377 435.958 554.646V562.086C435.958 562.356 436.177 562.574 436.446 562.574Z" fill="#3F3D56"/>
<path d="M408.392 562.574H421.443C421.712 562.574 421.931 562.356 421.931 562.086V554.646C421.931 554.377 421.712 554.158 421.443 554.158H408.392C408.122 554.158 407.903 554.377 407.903 554.646V562.086C407.903 562.356 408.122 562.574 408.392 562.574Z" fill="#3F3D56"/>
<path d="M380.337 562.574H393.388C393.657 562.574 393.876 562.356 393.876 562.086V554.646C393.876 554.377 393.657 554.158 393.388 554.158H380.337C380.067 554.158 379.849 554.377 379.849 554.646V562.086C379.849 562.356 380.067 562.574 380.337 562.574Z" fill="#3F3D56"/>
<path d="M352.282 562.574H365.333C365.603 562.574 365.821 562.356 365.821 562.086V554.646C365.821 554.377 365.603 554.158 365.333 554.158H352.282C352.013 554.158 351.794 554.377 351.794 554.646V562.086C351.794 562.356 352.013 562.574 352.282 562.574Z" fill="#3F3D56"/>
<path d="M324.228 562.574H337.279C337.548 562.574 337.767 562.356 337.767 562.086V554.646C337.767 554.377 337.548 554.158 337.279 554.158H324.228C323.958 554.158 323.739 554.377 323.739 554.646V562.086C323.739 562.356 323.958 562.574 324.228 562.574Z" fill="#3F3D56"/>
<path d="M296.173 562.574H309.224C309.494 562.574 309.712 562.356 309.712 562.086V554.646C309.712 554.377 309.494 554.158 309.224 554.158H296.173C295.903 554.158 295.685 554.377 295.685 554.646V562.086C295.685 562.356 295.903 562.574 296.173 562.574Z" fill="#3F3D56"/>
<path d="M268.118 562.574H281.169C281.439 562.574 281.657 562.356 281.657 562.086V554.646C281.657 554.377 281.439 554.158 281.169 554.158H268.118C267.849 554.158 267.63 554.377 267.63 554.646V562.086C267.63 562.356 267.849 562.574 268.118 562.574Z" fill="#3F3D56"/>
<path d="M425.084 579.407H536.327C536.596 579.407 536.815 579.189 536.815 578.919V571.479C536.815 571.209 536.596 570.991 536.327 570.991H425.084C424.815 570.991 424.596 571.209 424.596 571.479V578.919C424.596 579.189 424.815 579.407 425.084 579.407Z" fill="#3F3D56"/>
<path d="M472.311 363.99L472.326 363.987C472.43 363.893 472.526 363.791 472.613 363.681L472.311 363.99Z" fill="#40818E"/>
<path d="M512.281 440.541L512.286 440.55L512.374 440.381L512.281 440.541Z" fill="#40818E"/>
<path d="M679.532 285.154H292.209C291.943 285.148 291.691 285.039 291.505 284.849C291.319 284.659 291.215 284.404 291.215 284.139C291.215 283.873 291.319 283.619 291.505 283.429C291.691 283.239 291.943 283.129 292.209 283.124H679.532C679.797 283.129 680.05 283.239 680.236 283.429C680.421 283.619 680.525 283.873 680.525 284.139C680.525 284.404 680.421 284.659 680.236 284.849C680.05 285.039 679.797 285.148 679.532 285.154Z" fill="#CACACA"/>
<path d="M314.564 270.939C320.598 270.939 325.489 265.939 325.489 259.771C325.489 253.602 320.598 248.602 314.564 248.602C308.53 248.602 303.638 253.602 303.638 259.771C303.638 265.939 308.53 270.939 314.564 270.939Z" fill="#3F3D56"/>
<path d="M352.306 270.939C358.34 270.939 363.231 265.939 363.231 259.771C363.231 253.602 358.34 248.602 352.306 248.602C346.272 248.602 341.38 253.602 341.38 259.771C341.38 265.939 346.272 270.939 352.306 270.939Z" fill="#3F3D56"/>
<path d="M390.048 270.939C396.082 270.939 400.973 265.939 400.973 259.771C400.973 253.602 396.082 248.602 390.048 248.602C384.014 248.602 379.123 253.602 379.123 259.771C379.123 265.939 384.014 270.939 390.048 270.939Z" fill="#3F3D56"/>
<path d="M656.915 251.37H630.105C629.574 251.381 629.068 251.599 628.695 251.979C628.323 252.358 628.115 252.869 628.115 253.4C628.115 253.932 628.323 254.442 628.695 254.822C629.068 255.201 629.574 255.42 630.105 255.43H656.915C657.446 255.42 657.953 255.201 658.325 254.822C658.697 254.442 658.905 253.932 658.905 253.4C658.905 252.869 658.697 252.358 658.325 251.979C657.953 251.599 657.446 251.381 656.915 251.37V251.37Z" fill="#3F3D56"/>
<path d="M656.915 258.99H630.105C629.574 259.001 629.068 259.219 628.695 259.599C628.323 259.978 628.115 260.489 628.115 261.02C628.115 261.552 628.323 262.062 628.695 262.442C629.068 262.821 629.574 263.04 630.105 263.05H656.915C657.446 263.04 657.953 262.821 658.325 262.442C658.697 262.062 658.905 261.552 658.905 261.02C658.905 260.489 658.697 259.978 658.325 259.599C657.953 259.219 657.446 259.001 656.915 258.99V258.99Z" fill="#3F3D56"/>
<path d="M656.915 266.6H630.105C629.574 266.611 629.068 266.829 628.695 267.209C628.323 267.588 628.115 268.099 628.115 268.63C628.115 269.162 628.323 269.672 628.695 270.052C629.068 270.431 629.574 270.65 630.105 270.66H656.915C657.446 270.65 657.953 270.431 658.325 270.052C658.697 269.672 658.905 269.162 658.905 268.63C658.905 268.099 658.697 267.588 658.325 267.209C657.953 266.829 657.446 266.611 656.915 266.6V266.6Z" fill="#3F3D56"/>
<path d="M420.958 426.396V435.859H325.309V429.458L387.745 334.922H397.022L383.849 357.837L338.854 426.396H420.958ZM399.898 334.922V470H388.858V334.922H399.898ZM518.556 390.864V413.594C518.556 423.49 517.628 432.118 515.772 439.478C513.917 446.776 511.196 452.837 507.608 457.661C504.083 462.424 499.754 465.98 494.62 468.33C489.549 470.68 483.735 471.855 477.179 471.855C471.983 471.855 467.221 471.113 462.892 469.629C458.562 468.145 454.697 465.887 451.295 462.856C447.955 459.764 445.11 455.898 442.76 451.26C440.41 446.621 438.616 441.178 437.379 434.932C436.142 428.623 435.523 421.51 435.523 413.594V390.864C435.523 380.907 436.451 372.31 438.307 365.073C440.224 357.837 442.945 351.838 446.471 347.075C450.058 342.313 454.418 338.787 459.552 336.499C464.685 334.149 470.499 332.974 476.993 332.974C482.188 332.974 486.951 333.747 491.28 335.293C495.672 336.777 499.537 339.004 502.877 341.973C506.279 344.941 509.124 348.745 511.412 353.384C513.762 357.961 515.525 363.372 516.7 369.619C517.937 375.866 518.556 382.948 518.556 390.864ZM507.516 414.893V389.473C507.516 383.35 507.083 377.783 506.217 372.773C505.413 367.764 504.207 363.372 502.599 359.6C500.991 355.827 498.95 352.673 496.476 350.137C494.063 347.601 491.218 345.715 487.94 344.478C484.724 343.179 481.075 342.529 476.993 342.529C471.983 342.529 467.561 343.55 463.727 345.591C459.954 347.57 456.799 350.539 454.264 354.497C451.728 358.394 449.811 363.28 448.512 369.155C447.275 375.031 446.656 381.803 446.656 389.473V414.893C446.656 420.954 447.058 426.489 447.862 431.499C448.666 436.447 449.903 440.838 451.573 444.673C453.243 448.507 455.284 451.755 457.696 454.414C460.17 457.012 463.015 458.991 466.231 460.352C469.509 461.65 473.159 462.3 477.179 462.3C482.312 462.3 486.765 461.279 490.538 459.238C494.311 457.135 497.465 454.074 500.001 450.054C502.537 445.972 504.423 440.993 505.66 435.117C506.897 429.18 507.516 422.438 507.516 414.893ZM631.739 426.396V435.859H536.09V429.458L598.526 334.922H607.804L594.63 357.837L549.635 426.396H631.739ZM610.68 334.922V470H599.64V334.922H610.68Z" fill="#3F3D56"/>
</g>
<defs>
<clipPath id="clip0_2_66">
<rect width="829.131" height="587.676" fill="white"/>
</clipPath>
</defs>
</svg>
